<svg width="25" height="24" viewBox="0 0 25 24" fill="none" xmlns="http://www.w3.org/2000/svg">
<path d="M20.8903 9.7288L13.3903 2.65255C13.3866 2.64935 13.3832 2.6459 13.38 2.64223C13.1039 2.39111 12.744 2.25195 12.3708 2.25195C11.9975 2.25195 11.6377 2.39111 11.3616 2.64223L11.3513 2.65255L3.85969 9.7288C3.70687 9.86932 3.58489 10.04 3.50146 10.2301C3.41803 10.4202 3.37497 10.6256 3.375 10.8332V19.5004C3.375 19.8982 3.53304 20.2797 3.81434 20.561C4.09564 20.8423 4.47718 21.0004 4.875 21.0004H9.375C9.77282 21.0004 10.1544 20.8423 10.4357 20.561C10.717 20.2797 10.875 19.8982 10.875 19.5004V15.0004H13.875V19.5004C13.875 19.8982 14.033 20.2797 14.3143 20.561C14.5956 20.8423 14.9772 21.0004 15.375 21.0004H19.875C20.2728 21.0004 20.6544 20.8423 20.9357 20.561C21.217 20.2797 21.375 19.8982 21.375 19.5004V10.8332C21.375 10.6256 21.332 10.4202 21.2485 10.2301C21.1651 10.04 21.0431 9.86932 20.8903 9.7288ZM19.875 19.5004H15.375V15.0004C15.375 14.6025 15.217 14.221 14.9357 13.9397C14.6544 13.6584 14.2728 13.5004 13.875 13.5004H10.875C10.4772 13.5004 10.0956 13.6584 9.81434 13.9397C9.53304 14.221 9.375 14.6025 9.375 15.0004V19.5004H4.875V10.8332L4.88531 10.8238L12.375 3.75036L19.8656 10.8219L19.8759 10.8313L19.875 19.5004Z" fill="#BCBCBC"/>
</svg>
